# xmcd CD database file
#
# Track frame offsets:
#	150
#	24898
#	46967
#	60090
#	78045
#	95228
#	109788
#	133928
#	157956
#	176631
#	196202
#	215160
#
# Disc length: 3237 seconds
#
# Revision: 0
# Processed by: cddbd v1.5.2PL0 Copyright (c) Steve Scherf et al.
# Submitted via: CDex 1.70beta3
#
DISCID=990ca30c
DTITLE=Kondo Toshinori - 戦争童話集 II
DYEAR=1900
DGENRE=Jazz
TTITLE0=Summertime
TTITLE1=ヤシの実
TTITLE2=心の街
TTITLE3=誘惑の花
TTITLE4=夢見るクジラ
TTITLE5=潜水艦の中
TTITLE6=八月の風船
TTITLE7=風に吹かれて
TTITLE8=南洋小唄
TTITLE9=戦を恨む母
TTITLE10=Dock of the Bay
TTITLE11=友情
EXTD=
EXTT0=
EXTT1=
EXTT2=
EXTT3=
EXTT4=
EXTT5=
EXTT6=
EXTT7=
EXTT8=
EXTT9=
EXTT10=
EXTT11=
PLAYORDER=
